<svg xmlns="http://www.w3.org/2000/svg" xmlns:xlink="http://www.w3.org/1999/xlink" width="162" height="282" viewBox="0 0 162 282"><svg width="10" height="10" viewBox="0 0 10 10" id="add-room" y="0"><title>11DDB6DA-9F43-4C07-9CD2-194B8898AC6E</title><path d="M5.357 5.358v4.286a.357.357 0 0 1-.714 0V5.358H.357a.357.357 0 0 1 0-.715h4.286V.357a.358.358 0 0 1 .714 0v4.286h4.286a.358.358 0 0 1 0 .715H5.357z" fill="#232E48" fill-rule="evenodd"></path></svg><svg width="17" height="14" viewBox="0 0 17 14" id="arrow" y="10"><path fill="#5B5B74" fill-rule="evenodd" d="M16.867 6.67c.09.092.133.211.133.33a.47.47 0 0 1-.133.33l-6.363 6.533a.447.447 0 0 1-.643 0 .476.476 0 0 1 0-.66l5.587-5.736H.455A.46.46 0 0 1 0 7a.46.46 0 0 1 .455-.466h14.993L9.861.796a.476.476 0 0 1 0-.66.447.447 0 0 1 .643 0l6.363 6.534z"></path></svg><svg width="14" height="10" viewBox="0 0 14 10" id="confirm-room" y="24"><title>1FABEA4D-8BB6-4348-80CA-9F4E6CF5EDB5</title><path d="M12.891 1.615L5.37 8.895a.381.381 0 0 1-.526 0c-.001-.001 0-.004-.002-.005l-.011-.008-3.72-3.6a.356.356 0 0 1 0-.515.384.384 0 0 1 .53 0l3.472 3.359 7.252-7.02a.38.38 0 0 1 .527 0 .352.352 0 0 1 0 .51" stroke="#232E48" stroke-width=".526" fill="#232E48" fill-rule="evenodd"></path></svg><svg width="21" height="24" viewBox="0 0 21 24" id="delete-icon" y="34"><title>E3B10C93-63D3-4090-82A8-CE7AC8189A58</title><path d="M17.074 22.523a.501.501 0 0 1-.5.477H4.476a.501.501 0 0 1-.5-.475L3.051 4h14.95l-.927 18.523zM6.686 1.378A.5.5 0 0 1 7.171 1h6.658c.23 0 .43.156.484.378L14.72 3H6.281l.405-1.622zM20.5 3a.5.5 0 1 1 0 1h-1.499l-.929 18.574A1.5 1.5 0 0 1 16.574 24H4.476a1.5 1.5 0 0 1-1.498-1.424L2.05 4H.5a.5.5 0 1 1 0-1h4.75l.466-1.864A1.499 1.499 0 0 1 7.171 0h6.658a1.5 1.5 0 0 1 1.455 1.136L15.75 3h4.75zm-13 6a.5.5 0 0 0-.5.5v8a.5.5 0 0 0 1 0v-8a.5.5 0 0 0-.5-.5zm6 0a.5.5 0 0 0-.5.5v8a.5.5 0 0 0 1 0v-8a.5.5 0 0 0-.5-.5zm-3-1a.5.5 0 0 0-.5.5v10a.5.5 0 0 0 1 0v-10a.5.5 0 0 0-.5-.5z" fill="#AAABAE" fill-rule="evenodd"></path></svg><svg width="12" height="7" viewBox="0 0 12 7" id="down-arrow" y="58"><title>E34D1368-6FF1-461E-B58C-1323A4B854ED</title><path d="M11.774.235a.756.756 0 0 0-1.096 0L6 5.068 1.322.235a.774.774 0 0 0-1.096 0A.808.808 0 0 0 0 .8c0 .214.08.414.226.566l5.227 5.399a.752.752 0 0 0 1.095 0l5.226-5.4A.81.81 0 0 0 12 .8a.808.808 0 0 0-.226-.565" fill="#7B7B85" fill-rule="evenodd"></path></svg><svg width="14" height="14" viewBox="0 0 14 14" id="info-icon" y="65"><title>0B26815B-47B9-4DDC-98EF-5DFE69108664</title><path d="M7 14A7 7 0 1 1 7 0a7 7 0 0 1 0 14zm0-.824A6.176 6.176 0 1 0 7 .824a6.176 6.176 0 0 0 0 12.352zm-.467-8.51v-.933h.934v.934h-.934zm0 5.6V5.6h.934v4.667h-.934z" fill="#222D49" fill-rule="evenodd"></path></svg><svg width="18" height="26" viewBox="0 0 18 26" id="location-icon" y="79"><path fill="#232E48" fill-rule="evenodd" d="M9 10.4c-1.46 0-2.647-1.166-2.647-2.6C6.353 6.366 7.54 5.2 9 5.2c1.46 0 2.647 1.166 2.647 2.6 0 1.434-1.188 2.6-2.647 2.6m0-6.24c-2.047 0-3.706 1.629-3.706 3.64S6.954 11.44 9 11.44c2.047 0 3.706-1.629 3.706-3.64S11.046 4.16 9 4.16m.417 20.6a.522.522 0 0 1-.415.2.52.52 0 0 1-.416-.202C6.131 21.638 1.059 13.641 1.059 8.84c0-4.301 3.562-7.8 7.941-7.8 4.38 0 7.941 3.499 7.941 7.8 0 4.828-5.07 12.809-7.524 15.92M9 0C4.03 0 0 3.958 0 8.84c0 5.176 5.276 13.412 7.748 16.555A1.59 1.59 0 0 0 9.002 26c.466 0 .934-.2 1.252-.604C12.728 22.262 18 14.047 18 8.84 18 3.958 13.97 0 9 0"></path></svg><svg width="162" height="83" viewBox="0 0 162 83" id="logo" y="105"><g fill="none" fill-rule="evenodd"><path d="M53.065 79.724v-9.357h.79v3.446h.026c.171-.734.75-1.205 1.632-1.205 1.54 0 2.238 1.218 2.238 3.63 0 2.424-.698 3.643-2.238 3.643-.842 0-1.5-.511-1.71-1.31h-.027v1.153h-.71zm.79-3.486c0 2.581.724 2.988 1.527 2.988.79 0 1.526-.407 1.526-2.988 0-2.569-.737-2.975-1.526-2.975-.803 0-1.527.406-1.527 2.975zm6.475 3.552l-.197.654c-.224.734-.553.93-1.04.93-.171 0-.342-.012-.513-.025v.655c.158.013.316.026.526.026 1.08 0 1.474-.38 1.856-1.743l2.04-7.522h-.842l-1.409 6.028h-.026l-1.566-6.028h-.842l2.013 7.024zm11.543-4.129v.197c0 2.201-.698 3.315-1.961 3.315-1.33 0-2.159-1.087-2.159-4.128 0-3.04.83-4.128 2.159-4.128 1.224 0 1.855.944 1.855 2.07h.843c-.106-1.611-.908-2.778-2.698-2.778-1.935 0-3.001 1.481-3.001 4.836 0 3.355 1.066 4.836 3 4.836.948 0 1.764-.655 2.067-1.704h.026v1.547h.658v-4.77h-3.014v.707h2.225zm2.211 4.063h.79v-4.351c0-1.35.802-1.98 1.684-1.98.119 0 .25.014.382.04v-.786a1.006 1.006 0 0 0-.277-.04c-.829 0-1.46.46-1.763 1.246h-.027v-1.088h-.79v6.959zm4.303-4.889h-.79c0-1.428.672-2.227 2.16-2.227 1.434 0 1.973.747 1.973 1.847v4.115c0 .38.132.577.408.577h.224v.577a1.165 1.165 0 0 1-.368.078c-.619 0-1.014-.144-1.014-.865v-.236h-.026c-.316.918-1.013 1.18-1.803 1.18-1.224 0-1.777-.76-1.777-1.966 0-.93.408-1.651 1.408-1.926l1.488-.42c.565-.144.67-.301.67-1.1 0-.892-.486-1.206-1.21-1.206-.948 0-1.343.563-1.343 1.572zm2.554 2.425v-1.468h-.027c-.092.25-.526.367-.842.459l-.658.17c-.79.21-1.198.603-1.198 1.442 0 .825.422 1.363 1.106 1.363.96 0 1.619-.708 1.619-1.966zm2.409 2.464h.789v-4.679c0-1.088.605-1.782 1.54-1.782.803 0 1.198.472 1.198 1.428v5.033h.79v-5.256c0-1.31-.725-1.86-1.79-1.86-.725 0-1.383.34-1.79 1.127h-.027v-.97h-.71v6.959zm7.12 0h.895l1.842-6.96h-.842l-1.422 6.069h-.026l-1.553-6.068h-.842zm3.645-8.021h.79v-1.336h-.79zm0 8.021h.79v-6.96h-.79zm4.58-3.028c.698.276.948.669.948 1.285 0 .786-.54 1.245-1.382 1.245-.895 0-1.342-.511-1.342-1.547v-.183h-.79v.223c0 1.572.71 2.162 2.145 2.162 1.474 0 2.159-.878 2.159-2.07 0-.774-.356-1.416-1.303-1.77l-1.145-.432c-.79-.302-.948-.682-.948-1.167 0-.694.342-1.18 1.277-1.18.737 0 1.145.38 1.145 1.285v.197h.79v-.197c0-1.271-.606-1.94-1.922-1.94-1.198 0-2.08.577-2.08 2.006 0 .694.343 1.27 1.343 1.65l1.105.433zm3.199 1.888c0 .93.408 1.218 1.474 1.218.276 0 .46-.026.552-.078v-.656a1.71 1.71 0 0 1-.487.08c-.513 0-.75-.171-.75-.735V73.42h1.237v-.655h-1.237v-1.927h-.79v1.927h-.96v.655h.96v5.164zm3.526-3.749h-.789c0-1.428.671-2.227 2.159-2.227 1.434 0 1.974.747 1.974 1.847v4.115c0 .38.131.577.408.577h.223v.577a1.165 1.165 0 0 1-.368.078c-.619 0-1.013-.144-1.013-.865v-.236h-.027c-.316.918-1.013 1.18-1.803 1.18-1.224 0-1.777-.76-1.777-1.966 0-.93.408-1.651 1.409-1.926l1.487-.42c.566-.144.671-.301.671-1.1 0-.892-.487-1.206-1.21-1.206-.948 0-1.343.563-1.343 1.572zm2.554 2.425v-1.468h-.026c-.092.25-.527.367-.843.459l-.658.17c-.79.21-1.197.603-1.197 1.442 0 .825.42 1.363 1.105 1.363.961 0 1.62-.708 1.62-1.966z" fill="#2F2522" opacity=".4"></path><path fill="#000" d="M0 50.376h1.938v-5.644h3.57v5.644h1.938V38.238H5.508V43.1h-3.57v-4.862H0v12.138zm12.975-1.224c1.156 0 2.074-.731 2.074-4.896 0-4.08-.918-4.794-2.074-4.794-1.156 0-2.074.714-2.074 4.794 0 4.165.918 4.896 2.074 4.896zm0 1.462c-2.788 0-4.012-1.972-4.012-6.307 0-4.335 1.224-6.307 4.012-6.307 2.788 0 4.012 1.972 4.012 6.307 0 4.335-1.224 6.307-4.012 6.307zm7.008-.238h1.938V39.87h2.839v-1.632h-7.667v1.632h2.89v10.506zm5.682 0h6.698v-1.632h-4.76v-3.876h4.352v-1.632h-4.352V39.87h4.624v-1.632h-6.562v12.138zm7.756 0h6.63v-1.632h-4.692V38.238h-1.938v12.138zm15.172-1.224c1.156 0 2.074-.731 2.074-4.896 0-4.08-.918-4.794-2.074-4.794-1.156 0-2.074.714-2.074 4.794 0 4.165.918 4.896 2.074 4.896zm0 1.462c-2.788 0-4.012-1.972-4.012-6.307 0-4.335 1.224-6.307 4.012-6.307 2.788 0 4.012 1.972 4.012 6.307 0 4.335-1.224 6.307-4.012 6.307zm5.087-3.995v.289c0 1.7.68 3.706 3.689 3.706 2.448 0 4.012-1.071 4.012-3.655 0-1.683-.748-2.601-2.465-3.213l-1.309-.476c-1.292-.493-1.819-1.02-1.819-2.057 0-1.292.799-1.751 1.632-1.751 1.224 0 1.7.646 1.7 1.751v.255h1.938v-.272c0-1.258-.323-3.196-3.434-3.196-2.261 0-3.774 1.224-3.774 3.434 0 1.734.765 2.652 2.533 3.332l1.326.459c1.088.323 1.734.884 1.734 2.159 0 .884-.629 1.768-1.836 1.768-1.326 0-1.989-.748-1.989-2.227v-.306H53.68zm7.909 3.757l3.451-12.138h2.482l3.196 12.138h-2.023l-.748-2.975h-3.553l-.782 2.975h-2.023zm3.162-4.522h2.873L66.23 39.87h-.034l-1.445 5.984zm6.617 4.522V38.238h1.938v5.287h.034l3.672-5.287h2.125l-3.502 5.117 3.876 7.021h-2.193l-2.941-5.457-1.071 1.53v3.927h-1.938zm7.467 0l3.451-12.138h2.482l3.196 12.138h-2.023l-.748-2.975H81.64l-.782 2.975h-2.023zm3.162-4.522h2.873l-1.394-5.984h-.034l-1.445 5.984zm10.497 4.522V38.238h3.927c1.819 0 3.264.816 3.264 2.941 0 1.462-.595 2.38-1.785 2.754v.034c1.326.238 2.176 1.037 2.176 3.094 0 2.04-1.462 3.315-3.74 3.315h-3.842zm1.938-1.462h1.921c1.156 0 1.785-.731 1.785-2.142 0-1.309-.765-2.057-1.904-2.057h-1.802v4.199zm0-5.559h1.53c1.173 0 1.785-.765 1.785-1.921 0-1.445-.867-1.734-1.955-1.734h-1.36v3.655zm5.835 7.021l3.451-12.138h2.482l3.196 12.138h-2.023l-.748-2.975h-3.553l-.782 2.975h-2.023zm3.162-4.522h2.873l-1.394-5.984h-.034l-1.445 5.984zm7.739 4.522v-4.743l-3.128-7.395h2.159l2.04 5.236 2.091-5.236h2.023l-3.247 7.395v4.743h-1.938zm7.909 0V39.87h-2.89v-1.632h7.667v1.632h-2.839v10.506h-1.938zm8.895-1.224c1.156 0 2.074-.731 2.074-4.896 0-4.08-.918-4.794-2.074-4.794-1.156 0-2.074.714-2.074 4.794 0 4.165.918 4.896 2.074 4.896zm0 1.462c-2.788 0-4.012-1.972-4.012-6.307 0-4.335 1.224-6.307 4.012-6.307 2.788 0 4.012 1.972 4.012 6.307 0 4.335-1.224 6.307-4.012 6.307zm6.974-.238h2.244l1.547-9.146h.034l1.564 9.146h2.244l2.414-12.138h-1.921l-1.581 9.486h-.034l-1.632-9.486h-2.04l-1.598 9.435h-.034l-1.598-9.435H132.6l2.346 12.138zm10.952 0h6.698v-1.632h-4.76v-3.876h4.352v-1.632h-4.352V39.87h4.624v-1.632h-6.562v12.138zm9.915-6.732h1.547c1.241 0 1.938-.748 1.938-1.972 0-1.292-.544-1.972-1.836-1.972h-1.649v3.944zm-1.938 6.732V38.238h4.284c1.7 0 3.077.867 3.077 3.128 0 1.564-.68 2.771-2.023 2.975v.034c1.224.119 1.836.782 1.904 2.482.017.799.017 1.734.068 2.465.051.595.323.867.578 1.054h-2.193c-.187-.221-.272-.595-.323-1.071a11.65 11.65 0 0 1-.051-1.088c0-.357-.017-.765-.034-1.207-.051-1.326-.459-1.904-1.768-1.904h-1.581v5.27h-1.938z"></path><path fill="#0095FF" d="M65.097 54.605h6.58v6.553h-6.58v-6.553zm12.064 0h6.58v6.553h-6.58v-6.553zm12.065 0h6.58v6.553h-6.58v-6.553zm-24.13-28.394h6.581v6.552h-6.58v-6.552zm12.065 0h6.58v6.552h-6.58v-6.552zm12.065 0h6.58v6.552h-6.58v-6.552zm-24.13-13.106h6.581v6.553h-6.58v-6.553zm12.065 0h6.58v6.553h-6.58v-6.553zm12.065 0h6.58v6.553h-6.58v-6.553zM65.096 0h6.581v6.553h-6.58V0zm12.065 0h6.58v6.553h-6.58V0zm12.065 0h6.58v6.553h-6.58V0z"></path></g></svg><svg width="18" height="18" viewBox="0 0 18 18" id="phone-icon" y="188"><title>17AB58D6-26B0-4397-B7C5-1C172C7DAEB3</title><path d="M17.098 14.937l-1.347 1.347a3.165 3.165 0 0 1-2.252.933 3.16 3.16 0 0 1-1.8-.56c-1.91-1.313-4.473-3.166-5.832-4.524C4.508 10.774 2.657 8.21 1.342 6.3a3.182 3.182 0 0 1 .374-4.052L3.063.902a.405.405 0 0 1 .576 0l2.243 2.243a.408.408 0 0 1 0 .576l-.967.966a1.571 1.571 0 0 0-.228 1.938c.55.899 1.656 2.589 2.877 3.81 1.221 1.221 2.912 2.327 3.81 2.878a1.57 1.57 0 0 0 1.939-.23l.966-.965a.405.405 0 0 1 .576 0l2.243 2.243a.408.408 0 0 1 0 .576m.553-1.13l-2.243-2.242a1.186 1.186 0 0 0-.84-.349c-.305 0-.61.116-.842.349l-.967.965a.788.788 0 0 1-.976.115c-.842-.515-2.494-1.591-3.665-2.763C6.946 8.71 5.87 7.059 5.354 6.216a.79.79 0 0 1 .115-.976l.966-.966a1.19 1.19 0 0 0 0-1.683L4.192.348A1.186 1.186 0 0 0 3.351 0c-.305 0-.609.116-.841.348L1.163 1.695a3.962 3.962 0 0 0-.466 5.048c1.366 1.986 3.227 4.553 4.617 5.943 1.39 1.39 3.956 3.251 5.943 4.617a3.963 3.963 0 0 0 5.048-.466l1.346-1.347a1.19 1.19 0 0 0 0-1.682" fill="#7B7B85" fill-rule="evenodd"></path></svg><svg width="38" height="38" viewBox="0 0 38 38" id="star" y="206"><defs><filter id="a" width="115%" height="109.9%" x="-7.5%" y="-5%" filterUnits="objectBoundingBox"><feOffset in="SourceAlpha" result="shadowOffsetOuter1"></feOffset><feGaussianBlur in="shadowOffsetOuter1" result="shadowBlurOuter1" stdDeviation="7.5"></feGaussianBlur><feColorMatrix in="shadowBlurOuter1" result="shadowMatrixOuter1" values="0 0 0 0 0 0 0 0 0 0.234912079 0 0 0 0 0.403300383 0 0 0 0.104251585 0"></feColorMatrix><feMerge><feMergeNode in="shadowMatrixOuter1"></feMergeNode><feMergeNode in="SourceGraphic"></feMergeNode></feMerge></filter><path id="b" d="M6.6.23L4.725 4.463.6 4.847l3.113 3.22-.863 4.471 3.736-2.336 3.735 2.336-.838-4.473L12.6 4.847l-4.125-.385z"></path></defs><g fill="none" fill-rule="evenodd" filter="url(#a)" transform="translate(12.4 12)"><use fill="#FFF" xlink:href="#b"></use><path stroke="#FF890D" d="M6.6 1.465L5.063 4.932l-3.38.316 2.57 2.66-.694 3.598 3.028-1.893 3.032 1.897-.675-3.608 2.572-2.654-3.38-.316L6.6 1.465z"></path></g></svg><svg width="38" height="38" viewBox="0 0 38 38" id="star-filled" y="244"><defs><filter id="a" width="115%" height="109.9%" x="-7.5%" y="-5%" filterUnits="objectBoundingBox"><feOffset in="SourceAlpha" result="shadowOffsetOuter1"></feOffset><feGaussianBlur in="shadowOffsetOuter1" result="shadowBlurOuter1" stdDeviation="7.5"></feGaussianBlur><feColorMatrix in="shadowBlurOuter1" result="shadowMatrixOuter1" values="0 0 0 0 0 0 0 0 0 0.234912079 0 0 0 0 0.403300383 0 0 0 0.104251585 0"></feColorMatrix><feMerge><feMergeNode in="shadowMatrixOuter1"></feMergeNode><feMergeNode in="SourceGraphic"></feMergeNode></feMerge></filter></defs><path fill="#FF890D" fill-rule="evenodd" d="M21 .23l-1.875 4.232L15 4.847l3.113 3.22-.863 4.471 3.736-2.336 3.735 2.336-.838-4.473L27 4.847l-4.125-.385z" filter="url(#a)" transform="translate(-2 12)"></path></svg></svg>