<?xml version="1.0" encoding="UTF-8" standalone="no"?>
<svg width="10px" height="10px" viewBox="0 0 10 10" version="1.1" xmlns="http://www.w3.org/2000/svg" xmlns:xlink="http://www.w3.org/1999/xlink">
    <!-- Generator: sketchtool 44.1 (41455) - http://www.bohemiancoding.com/sketch -->
    <title>11DDB6DA-9F43-4C07-9CD2-194B8898AC6E</title>
    <desc>Created with sketchtool.</desc>
    <defs></defs>
    <g id="Page-1" stroke="none" stroke-width="1" fill="none" fill-rule="evenodd">
        <g id="01-Hotel-MyStays-HP-Guest-Picker-Dropdown-Desktop" transform="translate(-767.000000, -960.000000)" fill="#232E48">
            <g id="Guests-Copy" transform="translate(652.000000, 633.000000)">
                <g id="Book-a-table-cta-Copy" transform="translate(20.000000, 313.000000)">
                    <path d="M100.357143,19.3578571 L100.357143,23.6435714 C100.357143,23.8407143 100.196429,24 100,24 C99.8028571,24 99.6428571,23.8407143 99.6428571,23.6435714 L99.6428571,19.3578571 L95.3571429,19.3578571 C95.16,19.3578571 95,19.1978571 95,19 C95,18.8035714 95.16,18.6428571 95.3571429,18.6428571 L99.6428571,18.6428571 L99.6428571,14.3571429 C99.6428571,14.1607143 99.8028571,14 100,14 C100.196429,14 100.357143,14.1607143 100.357143,14.3571429 L100.357143,18.6428571 L104.642857,18.6428571 C104.839286,18.6428571 105,18.8035714 105,19 C105,19.1978571 104.839286,19.3578571 104.642857,19.3578571 L100.357143,19.3578571 Z" id="+-icon"></path>
                </g>
            </g>
        </g>
    </g>
</svg>