<?xml version="1.0" encoding="UTF-8" standalone="no"?>
<svg width="16px" height="16px" viewBox="0 0 16 16" version="1.1" xmlns="http://www.w3.org/2000/svg" xmlns:xlink="http://www.w3.org/1999/xlink">
    <!-- Generator: sketchtool 45.2 (43514) - http://www.bohemiancoding.com/sketch -->
    <title>757000D8-A821-43FD-AC4E-90E59A4FC577</title>
    <desc>Created with sketchtool.</desc>
    <defs></defs>
    <g id="Page-1" stroke="none" stroke-width="1" fill="none" fill-rule="evenodd">
        <g id="MS-Pepper-Landing-Page-Desktop-JP" transform="translate(-302.000000, -513.000000)" fill="#232E48">
            <g id="Search-Default" transform="translate(230.000000, 286.000000)">
                <g id="Check-In" transform="translate(30.000000, 188.000000)">
                    <g id="Group-49" transform="translate(33.000000, 37.000000)">
                        <path d="M10,9 L24,9 L24,5 L10,5 L10,9 Z M10,17 L24,17 L24,10 L10,10 L10,17 Z M21,4 L21,2.5 C21,2.224 20.776,2 20.5,2 C20.224,2 20,2.224 20,2.5 L20,4 L14,4 L14,2.5 C14,2.224 13.776,2 13.5,2 C13.224,2 13,2.224 13,2.5 L13,4 L10,4 C9.448,4 9,4.448 9,5 L9,17 C9,17.552 9.448,18 10,18 L24,18 C24.552,18 25,17.552 25,17 L25,5 C25,4.448 24.552,4 24,4 L21,4 Z" id="Calendar-icon-Copy-2"></path>
                    </g>
                </g>
            </g>
        </g>
    </g>
</svg>