<?xml version="1.0" encoding="UTF-8" standalone="no"?>
<svg width="14px" height="10px" viewBox="0 0 14 10" version="1.1" xmlns="http://www.w3.org/2000/svg" xmlns:xlink="http://www.w3.org/1999/xlink">
    <!-- Generator: sketchtool 44.1 (41455) - http://www.bohemiancoding.com/sketch -->
    <title>1FABEA4D-8BB6-4348-80CA-9F4E6CF5EDB5</title>
    <desc>Created with sketchtool.</desc>
    <defs></defs>
    <g id="Page-1" stroke="none" stroke-width="1" fill="none" fill-rule="evenodd">
        <g id="01-Hotel-MyStays-HP-Guest-Picker-Dropdown-Desktop" transform="translate(-918.000000, -961.000000)" stroke="#232E48" stroke-width="0.526150955" fill="#232E48">
            <g id="Guests-Copy" transform="translate(652.000000, 633.000000)">
                <g id="Confirm-here-btn" transform="translate(156.000000, 313.000000)">
                    <g id="Group-44" transform="translate(19.000000, 13.000000)">
                        <path d="M103.891199,3.61511879 L96.3694958,10.8946914 C96.2244284,11.0351029 95.9884122,11.0351029 95.8433448,10.8946914 C95.8418415,10.8939639 95.8425932,10.8910538 95.8410899,10.8895987 C95.8373317,10.8859611 95.8328218,10.8852336 95.8298152,10.8823235 L92.109928,7.28109583 C91.9633573,7.13922928 91.9633573,6.90860521 92.109928,6.76673866 C92.2564986,6.62487212 92.4947698,6.62487212 92.6405888,6.76673866 L96.1116818,10.1257019 L103.364297,3.10585427 C103.510116,2.96471524 103.746132,2.96471524 103.891199,3.10585427 C104.036267,3.24626577 104.036267,3.47397977 103.891199,3.61511879" id="Icon"></path>
                    </g>
                </g>
            </g>
        </g>
    </g>
</svg>