<?xml version="1.0" encoding="UTF-8" standalone="no"?>
<svg width="21px" height="24px" viewBox="0 0 21 24" version="1.1" xmlns="http://www.w3.org/2000/svg" xmlns:xlink="http://www.w3.org/1999/xlink">
    <!-- Generator: sketchtool 44.1 (41455) - http://www.bohemiancoding.com/sketch -->
    <title>E3B10C93-63D3-4090-82A8-CE7AC8189A58</title>
    <desc>Created with sketchtool.</desc>
    <defs></defs>
    <g id="Page-1" stroke="none" stroke-width="1" fill="none" fill-rule="evenodd">
        <g id="01-Hotel-MyStays-HP-Guest-Picker-Dropdown-Desktop" transform="translate(-1037.000000, -894.000000)" fill="#AAABAE">
            <g id="Guests-Copy" transform="translate(652.000000, 633.000000)">
                <path d="M402.0742,283.5234 C402.0602,283.7914 401.8412,284.0004 401.5742,284.0004 L389.4762,284.0004 C389.2102,284.0004 388.9902,283.7914 388.9762,283.5254 L388.0512,265.0004 L403.0002,265.0004 L402.0742,283.5234 Z M391.6862,262.3784 C391.7422,262.1564 391.9412,262.0004 392.1712,262.0004 L398.8292,262.0004 C399.0582,262.0004 399.2582,262.1564 399.3132,262.3784 L399.7192,264.0004 L391.2812,264.0004 L391.6862,262.3784 Z M405.5002,264.0004 C405.7762,264.0004 406.0002,264.2234 406.0002,264.5004 C406.0002,264.7764 405.7762,265.0004 405.5002,265.0004 L404.0012,265.0004 L403.0722,283.5744 C403.0312,284.3754 402.3732,285.0004 401.5742,285.0004 L389.4762,285.0004 C388.6782,285.0004 388.0192,284.3754 387.9782,283.5764 L387.0502,265.0004 L385.5002,265.0004 C385.2232,265.0004 385.0002,264.7764 385.0002,264.5004 C385.0002,264.2234 385.2232,264.0004 385.5002,264.0004 L390.2502,264.0004 L390.7162,262.1364 C390.8832,261.4684 391.4822,261.0004 392.1712,261.0004 L398.8292,261.0004 C399.5172,261.0004 400.1172,261.4684 400.2842,262.1364 L400.7502,264.0004 L405.5002,264.0004 Z M392.5,270 C392.224,270 392,270.224 392,270.5 L392,278.5 C392,278.776 392.224,279 392.5,279 C392.776,279 393,278.776 393,278.5 L393,270.5 C393,270.224 392.776,270 392.5,270 Z M398.5,270 C398.224,270 398,270.224 398,270.5 L398,278.5 C398,278.776 398.224,279 398.5,279 C398.776,279 399,278.776 399,278.5 L399,270.5 C399,270.224 398.776,270 398.5,270 Z M395.5,269 C395.224,269 395,269.224 395,269.5 L395,279.5 C395,279.776 395.224,280 395.5,280 C395.776,280 396,279.776 396,279.5 L396,269.5 C396,269.224 395.776,269 395.5,269 Z" id="Delete-icon"></path>
            </g>
        </g>
    </g>
</svg>