<?xml version="1.0" encoding="UTF-8" standalone="no"?>
<svg width="12px" height="7px" viewBox="0 0 12 7" version="1.1" xmlns="http://www.w3.org/2000/svg" xmlns:xlink="http://www.w3.org/1999/xlink">
    <!-- Generator: sketchtool 46.2 (44496) - http://www.bohemiancoding.com/sketch -->
    <title>E34D1368-6FF1-461E-B58C-1323A4B854ED</title>
    <desc>Created with sketchtool.</desc>
    <defs></defs>
    <g id="Page-1" stroke="none" stroke-width="1" fill="none" fill-rule="evenodd">
        <g id="Hotel-Osaka-Baytower-Homepage-Desktop" transform="translate(-1177.000000, -23.000000)" fill="#7B7B85">
            <g id="Global-nav">
                <path d="M1188.77355,23.2347254 C1188.47065,22.9207591 1187.98,22.9227589 1187.67806,23.2347254 L1183,28.0682071 L1178.32194,23.2347254 C1178.02774,22.930758 1177.51871,22.9327578 1177.22645,23.2347254 C1177.08032,23.3857092 1177,23.5866877 1177,23.7996649 C1177,24.0136419 1177.08032,24.2136205 1177.22645,24.3656042 L1182.45323,29.7650252 C1182.59935,29.9170089 1182.7929,30 1183,30 C1183.2071,30 1183.40065,29.9170089 1183.54774,29.7650252 L1188.77355,24.3656042 C1188.91968,24.2136205 1189,24.0136419 1189,23.7996649 C1189,23.5866877 1188.91968,23.3857092 1188.77355,23.2347254" id="Arrow"></path>
            </g>
        </g>
    </g>
</svg>