<?xml version="1.0" encoding="UTF-8" standalone="no"?>
<svg width="14px" height="14px" viewBox="0 0 14 14" version="1.1" xmlns="http://www.w3.org/2000/svg" xmlns:xlink="http://www.w3.org/1999/xlink">
    <!-- Generator: sketchtool 46.2 (44496) - http://www.bohemiancoding.com/sketch -->
    <title>0B26815B-47B9-4DDC-98EF-5DFE69108664</title>
    <desc>Created with sketchtool.</desc>
    <defs></defs>
    <g id="Page-1" stroke="none" stroke-width="1" fill="none" fill-rule="evenodd">
        <g id="Hotel-Osaka-Baytower-Homepage-Desktop" transform="translate(-866.000000, -685.000000)" fill="#222D49">
            <g id="Search" transform="translate(250.000000, 543.000000)">
                <g id="Promo-Code-Focus" transform="translate(500.000000, 98.000000)">
                    <path d="M123,58 C119.134007,58 116,54.8659932 116,51 C116,47.1340068 119.134007,44 123,44 C126.865993,44 130,47.1340068 130,51 C130,54.8659932 126.865993,58 123,58 Z M123,57.1764706 C126.411171,57.1764706 129.176471,54.4111705 129.176471,51 C129.176471,47.5888295 126.411171,44.8235294 123,44.8235294 C119.588829,44.8235294 116.823529,47.5888295 116.823529,51 C116.823529,54.4111705 119.588829,57.1764706 123,57.1764706 Z M122.533333,48.6666667 L122.533333,47.7333333 L123.466667,47.7333333 L123.466667,48.6666667 L122.533333,48.6666667 Z M122.533333,54.2666667 L122.533333,49.6 L123.466667,49.6 L123.466667,54.2666667 L122.533333,54.2666667 Z" id="Info-icon"></path>
                </g>
            </g>
        </g>
    </g>
</svg>