<svg xmlns="http://www.w3.org/2000/svg" width="18" height="26" viewBox="0 0 18 26">
    <path fill="#232E48" fill-rule="evenodd" d="M9 10.4c-1.46 0-2.647-1.166-2.647-2.6C6.353 6.366 7.54 5.2 9 5.2c1.46 0 2.647 1.166 2.647 2.6 0 1.434-1.188 2.6-2.647 2.6m0-6.24c-2.047 0-3.706 1.629-3.706 3.64S6.954 11.44 9 11.44c2.047 0 3.706-1.629 3.706-3.64S11.046 4.16 9 4.16m.417 20.6a.522.522 0 0 1-.415.2.52.52 0 0 1-.416-.202C6.131 21.638 1.059 13.641 1.059 8.84c0-4.301 3.562-7.8 7.941-7.8 4.38 0 7.941 3.499 7.941 7.8 0 4.828-5.07 12.809-7.524 15.92M9 0C4.03 0 0 3.958 0 8.84c0 5.176 5.276 13.412 7.748 16.555A1.59 1.59 0 0 0 9.002 26c.466 0 .934-.2 1.252-.604C12.728 22.262 18 14.047 18 8.84 18 3.958 13.97 0 9 0"/>
</svg>
