<svg xmlns="http://www.w3.org/2000/svg" width="162" height="83" viewBox="0 0 162 83">
    <g fill="none" fill-rule="evenodd">
        <g fill="#2F2522" opacity=".4">
            <path d="M53.065 79.724v-9.357h.79v3.446h.026c.171-.734.75-1.205 1.632-1.205 1.54 0 2.238 1.218 2.238 3.63 0 2.424-.698 3.643-2.238 3.643-.842 0-1.5-.511-1.71-1.31h-.027v1.153h-.71zm.79-3.486c0 2.581.724 2.988 1.527 2.988.79 0 1.526-.407 1.526-2.988 0-2.569-.737-2.975-1.526-2.975-.803 0-1.527.406-1.527 2.975zM60.33 79.79l-.197.654c-.224.734-.553.93-1.04.93-.171 0-.342-.012-.513-.025v.655c.158.013.316.026.526.026 1.08 0 1.474-.38 1.856-1.743l2.04-7.522h-.842l-1.409 6.028h-.026l-1.566-6.028h-.842l2.013 7.024zM71.873 75.661v.197c0 2.201-.698 3.315-1.961 3.315-1.33 0-2.159-1.087-2.159-4.128 0-3.04.83-4.128 2.159-4.128 1.224 0 1.855.944 1.855 2.07h.843c-.106-1.611-.908-2.778-2.698-2.778-1.935 0-3.001 1.481-3.001 4.836 0 3.355 1.066 4.836 3 4.836.948 0 1.764-.655 2.067-1.704h.026v1.547h.658v-4.77h-3.014v.707h2.225zM74.084 79.724h.79v-4.351c0-1.35.802-1.98 1.684-1.98.119 0 .25.014.382.04v-.786a1.006 1.006 0 0 0-.277-.04c-.829 0-1.46.46-1.763 1.246h-.027v-1.088h-.79v6.959zM78.387 74.835h-.79c0-1.428.672-2.227 2.16-2.227 1.434 0 1.973.747 1.973 1.847v4.115c0 .38.132.577.408.577h.224v.577a1.165 1.165 0 0 1-.368.078c-.619 0-1.014-.144-1.014-.865v-.236h-.026c-.316.918-1.013 1.18-1.803 1.18-1.224 0-1.777-.76-1.777-1.966 0-.93.408-1.651 1.408-1.926l1.488-.42c.565-.144.67-.301.67-1.1 0-.892-.486-1.206-1.21-1.206-.948 0-1.343.563-1.343 1.572zm2.554 2.425v-1.468h-.027c-.092.25-.526.367-.842.459l-.658.17c-.79.21-1.198.603-1.198 1.442 0 .825.422 1.363 1.106 1.363.96 0 1.619-.708 1.619-1.966zM83.35 79.724h.789v-4.679c0-1.088.605-1.782 1.54-1.782.803 0 1.198.472 1.198 1.428v5.033h.79v-5.256c0-1.31-.725-1.86-1.79-1.86-.725 0-1.383.34-1.79 1.127h-.027v-.97h-.71v6.959zM90.47 79.724h.895l1.842-6.96h-.842l-1.422 6.069h-.026l-1.553-6.068h-.842zM94.115 71.703h.79v-1.336h-.79zM94.115 79.724h.79v-6.96h-.79zM98.695 76.696c.698.276.948.669.948 1.285 0 .786-.54 1.245-1.382 1.245-.895 0-1.342-.511-1.342-1.547v-.183h-.79v.223c0 1.572.71 2.162 2.145 2.162 1.474 0 2.159-.878 2.159-2.07 0-.774-.356-1.416-1.303-1.77l-1.145-.432c-.79-.302-.948-.682-.948-1.167 0-.694.342-1.18 1.277-1.18.737 0 1.145.38 1.145 1.285v.197h.79v-.197c0-1.271-.606-1.94-1.922-1.94-1.198 0-2.08.577-2.08 2.006 0 .694.343 1.27 1.343 1.65l1.105.433zM101.894 78.584c0 .93.408 1.218 1.474 1.218.276 0 .46-.026.552-.078v-.656a1.71 1.71 0 0 1-.487.08c-.513 0-.75-.171-.75-.735V73.42h1.237v-.655h-1.237v-1.927h-.79v1.927h-.96v.655h.96v5.164zM105.42 74.835h-.789c0-1.428.671-2.227 2.159-2.227 1.434 0 1.974.747 1.974 1.847v4.115c0 .38.131.577.408.577h.223v.577a1.165 1.165 0 0 1-.368.078c-.619 0-1.013-.144-1.013-.865v-.236h-.027c-.316.918-1.013 1.18-1.803 1.18-1.224 0-1.777-.76-1.777-1.966 0-.93.408-1.651 1.409-1.926l1.487-.42c.566-.144.671-.301.671-1.1 0-.892-.487-1.206-1.21-1.206-.948 0-1.343.563-1.343 1.572zm2.554 2.425v-1.468h-.026c-.092.25-.527.367-.843.459l-.658.17c-.79.21-1.197.603-1.197 1.442 0 .825.42 1.363 1.105 1.363.961 0 1.62-.708 1.62-1.966z"/>
        </g>
        <path fill="#000" d="M0 50.376h1.938v-5.644h3.57v5.644h1.938V38.238H5.508V43.1h-3.57v-4.862H0v12.138zm12.975-1.224c1.156 0 2.074-.731 2.074-4.896 0-4.08-.918-4.794-2.074-4.794-1.156 0-2.074.714-2.074 4.794 0 4.165.918 4.896 2.074 4.896zm0 1.462c-2.788 0-4.012-1.972-4.012-6.307 0-4.335 1.224-6.307 4.012-6.307 2.788 0 4.012 1.972 4.012 6.307 0 4.335-1.224 6.307-4.012 6.307zm7.008-.238h1.938V39.87h2.839v-1.632h-7.667v1.632h2.89v10.506zm5.682 0h6.698v-1.632h-4.76v-3.876h4.352v-1.632h-4.352V39.87h4.624v-1.632h-6.562v12.138zm7.756 0h6.63v-1.632h-4.692V38.238h-1.938v12.138zm15.172-1.224c1.156 0 2.074-.731 2.074-4.896 0-4.08-.918-4.794-2.074-4.794-1.156 0-2.074.714-2.074 4.794 0 4.165.918 4.896 2.074 4.896zm0 1.462c-2.788 0-4.012-1.972-4.012-6.307 0-4.335 1.224-6.307 4.012-6.307 2.788 0 4.012 1.972 4.012 6.307 0 4.335-1.224 6.307-4.012 6.307zm5.087-3.995v.289c0 1.7.68 3.706 3.689 3.706 2.448 0 4.012-1.071 4.012-3.655 0-1.683-.748-2.601-2.465-3.213l-1.309-.476c-1.292-.493-1.819-1.02-1.819-2.057 0-1.292.799-1.751 1.632-1.751 1.224 0 1.7.646 1.7 1.751v.255h1.938v-.272c0-1.258-.323-3.196-3.434-3.196-2.261 0-3.774 1.224-3.774 3.434 0 1.734.765 2.652 2.533 3.332l1.326.459c1.088.323 1.734.884 1.734 2.159 0 .884-.629 1.768-1.836 1.768-1.326 0-1.989-.748-1.989-2.227v-.306H53.68zm7.909 3.757l3.451-12.138h2.482l3.196 12.138h-2.023l-.748-2.975h-3.553l-.782 2.975h-2.023zm3.162-4.522h2.873L66.23 39.87h-.034l-1.445 5.984zm6.617 4.522V38.238h1.938v5.287h.034l3.672-5.287h2.125l-3.502 5.117 3.876 7.021h-2.193l-2.941-5.457-1.071 1.53v3.927h-1.938zm7.467 0l3.451-12.138h2.482l3.196 12.138h-2.023l-.748-2.975H81.64l-.782 2.975h-2.023zm3.162-4.522h2.873l-1.394-5.984h-.034l-1.445 5.984zm10.497 4.522V38.238h3.927c1.819 0 3.264.816 3.264 2.941 0 1.462-.595 2.38-1.785 2.754v.034c1.326.238 2.176 1.037 2.176 3.094 0 2.04-1.462 3.315-3.74 3.315h-3.842zm1.938-1.462h1.921c1.156 0 1.785-.731 1.785-2.142 0-1.309-.765-2.057-1.904-2.057h-1.802v4.199zm0-5.559h1.53c1.173 0 1.785-.765 1.785-1.921 0-1.445-.867-1.734-1.955-1.734h-1.36v3.655zm5.835 7.021l3.451-12.138h2.482l3.196 12.138h-2.023l-.748-2.975h-3.553l-.782 2.975h-2.023zm3.162-4.522h2.873l-1.394-5.984h-.034l-1.445 5.984zm7.739 4.522v-4.743l-3.128-7.395h2.159l2.04 5.236 2.091-5.236h2.023l-3.247 7.395v4.743h-1.938zm7.909 0V39.87h-2.89v-1.632h7.667v1.632h-2.839v10.506h-1.938zm8.895-1.224c1.156 0 2.074-.731 2.074-4.896 0-4.08-.918-4.794-2.074-4.794-1.156 0-2.074.714-2.074 4.794 0 4.165.918 4.896 2.074 4.896zm0 1.462c-2.788 0-4.012-1.972-4.012-6.307 0-4.335 1.224-6.307 4.012-6.307 2.788 0 4.012 1.972 4.012 6.307 0 4.335-1.224 6.307-4.012 6.307zm6.974-.238h2.244l1.547-9.146h.034l1.564 9.146h2.244l2.414-12.138h-1.921l-1.581 9.486h-.034l-1.632-9.486h-2.04l-1.598 9.435h-.034l-1.598-9.435H132.6l2.346 12.138zm10.952 0h6.698v-1.632h-4.76v-3.876h4.352v-1.632h-4.352V39.87h4.624v-1.632h-6.562v12.138zm9.915-6.732h1.547c1.241 0 1.938-.748 1.938-1.972 0-1.292-.544-1.972-1.836-1.972h-1.649v3.944zm-1.938 6.732V38.238h4.284c1.7 0 3.077.867 3.077 3.128 0 1.564-.68 2.771-2.023 2.975v.034c1.224.119 1.836.782 1.904 2.482.017.799.017 1.734.068 2.465.051.595.323.867.578 1.054h-2.193c-.187-.221-.272-.595-.323-1.071a11.65 11.65 0 0 1-.051-1.088c0-.357-.017-.765-.034-1.207-.051-1.326-.459-1.904-1.768-1.904h-1.581v5.27h-1.938z"/>
        <path fill="#0095FF" d="M65.097 54.605h6.58v6.553h-6.58v-6.553zm12.064 0h6.58v6.553h-6.58v-6.553zm12.065 0h6.58v6.553h-6.58v-6.553zm-24.13-28.394h6.581v6.552h-6.58v-6.552zm12.065 0h6.58v6.552h-6.58v-6.552zm12.065 0h6.58v6.552h-6.58v-6.552zm-24.13-13.106h6.581v6.553h-6.58v-6.553zm12.065 0h6.58v6.553h-6.58v-6.553zm12.065 0h6.58v6.553h-6.58v-6.553zM65.096 0h6.581v6.553h-6.58V0zm12.065 0h6.58v6.553h-6.58V0zm12.065 0h6.58v6.553h-6.58V0z"/>
    </g>
</svg>
