<?xml version="1.0" encoding="UTF-8" standalone="no"?>
<svg width="162px" height="35px" viewBox="0 0 162 35" version="1.1" xmlns="http://www.w3.org/2000/svg" xmlns:xlink="http://www.w3.org/1999/xlink">
    <!-- Generator: sketchtool 46.2 (44496) - http://www.bohemiancoding.com/sketch -->
    <title>17D3E9F3-D7E4-4E64-8B3D-B5AD3273C63C</title>
    <desc>Created with sketchtool.</desc>
    <defs></defs>
    <g id="Page-1" stroke="none" stroke-width="1" fill="none" fill-rule="evenodd">
        <g id="Hotel-Osaka-Baytower-Homepage-Mobile" transform="translate(-20.000000, -21.000000)">
            <g id="Header">
                <g id="Logo-mobile" transform="translate(20.000000, 20.000000)">
                    <g id="Group" opacity="0.400000006" fill="#2F2522">
                        <path d="M0.0651612903,32.7236842 L0.0651612903,23.3665263 L0.85483871,23.3665263 L0.85483871,26.8132105 L0.88116129,26.8132105 C1.05225806,26.0793158 1.63135484,25.6075263 2.51316129,25.6075263 C4.05303226,25.6075263 4.75058065,26.8263158 4.75058065,29.2376842 C4.75058065,31.6621579 4.05303226,32.8809474 2.51316129,32.8809474 C1.67083871,32.8809474 1.01277419,32.3698421 0.802193548,31.5704211 L0.775870968,31.5704211 L0.775870968,32.7236842 L0.0651612903,32.7236842 Z M0.85483871,29.2376842 C0.85483871,31.8194211 1.57870968,32.2256842 2.38154839,32.2256842 C3.17122581,32.2256842 3.90825806,31.8194211 3.90825806,29.2376842 C3.90825806,26.6690526 3.17122581,26.2627895 2.38154839,26.2627895 C1.57870968,26.2627895 0.85483871,26.6690526 0.85483871,29.2376842 Z" id="Combined-Shape"></path>
                        <path d="M7.33019355,32.7892105 L7.13277419,33.4444737 C6.90903226,34.1783684 6.58,34.3749474 6.09303226,34.3749474 C5.92193548,34.3749474 5.75083871,34.3618421 5.57974194,34.3487368 L5.57974194,35.004 C5.73767742,35.0171053 5.8956129,35.0302105 6.10619355,35.0302105 C7.18541935,35.0302105 7.58025806,34.6501579 7.96193548,33.2872105 L10.0019355,25.7647895 L9.1596129,25.7647895 L7.75135484,31.7932105 L7.72503226,31.7932105 L6.15883871,25.7647895 L5.31651613,25.7647895 L7.33019355,32.7892105 Z" id="by-Granvista"></path>
                        <path d="M18.8726452,28.6610526 L18.8726452,28.8576316 C18.8726452,31.0593158 18.1750968,32.1732632 16.9116129,32.1732632 C15.5823226,32.1732632 14.7531613,31.0855263 14.7531613,28.0451053 C14.7531613,25.0046842 15.5823226,23.9169474 16.9116129,23.9169474 C18.1356129,23.9169474 18.7673548,24.8605263 18.7673548,25.9875789 L19.6096774,25.9875789 C19.5043871,24.3756316 18.7015484,23.2092632 16.9116129,23.2092632 C14.9769032,23.2092632 13.9108387,24.6901579 13.9108387,28.0451053 C13.9108387,31.4000526 14.9769032,32.8809474 16.9116129,32.8809474 C17.8592258,32.8809474 18.6752258,32.2256842 18.9779355,31.1772632 L19.0042581,31.1772632 L19.0042581,32.7236842 L19.6623226,32.7236842 L19.6623226,27.9533684 L16.6483871,27.9533684 L16.6483871,28.6610526 L18.8726452,28.6610526 Z" id="by-Granvista"></path>
                        <path d="M21.0837419,32.7236842 L21.8734194,32.7236842 L21.8734194,28.3727368 C21.8734194,27.0228947 22.6762581,26.3938421 23.5580645,26.3938421 C23.6765161,26.3938421 23.808129,26.4069474 23.9397419,26.4331579 L23.9397419,25.6468421 C23.8476129,25.6206316 23.7554839,25.6075263 23.6633548,25.6075263 C22.8341935,25.6075263 22.2024516,26.0662105 21.8997419,26.8525263 L21.8734194,26.8525263 L21.8734194,25.7647895 L21.0837419,25.7647895 L21.0837419,32.7236842 Z" id="by-Granvista"></path>
                        <path d="M25.3874839,27.8354211 L24.5978065,27.8354211 C24.5978065,26.4069474 25.2690323,25.6075263 26.7562581,25.6075263 C28.1908387,25.6075263 28.7304516,26.3545263 28.7304516,27.4553684 L28.7304516,31.5704211 C28.7304516,31.9504737 28.8620645,32.1470526 29.1384516,32.1470526 L29.3621935,32.1470526 L29.3621935,32.7236842 C29.2174194,32.7761053 29.0858065,32.8023158 28.9936774,32.8023158 C28.3750968,32.8023158 27.9802581,32.6581579 27.9802581,31.9373684 L27.9802581,31.7014737 L27.9539355,31.7014737 C27.6380645,32.6188421 26.9405161,32.8809474 26.1508387,32.8809474 C24.9268387,32.8809474 24.3740645,32.1208421 24.3740645,30.9151579 C24.3740645,29.9846842 24.7820645,29.2638947 25.7823226,28.9886842 L27.2695484,28.5693158 C27.8354839,28.4251579 27.9407742,28.2678947 27.9407742,27.4684737 C27.9407742,26.5773158 27.4538065,26.2627895 26.7299355,26.2627895 C25.7823226,26.2627895 25.3874839,26.8263158 25.3874839,27.8354211 Z M27.9407742,30.2598947 L27.9407742,28.7921053 L27.9144516,28.7921053 C27.8223226,29.0411053 27.388,29.1590526 27.072129,29.2507895 L26.4140645,29.4211579 C25.6243871,29.6308421 25.2163871,30.024 25.2163871,30.8627368 C25.2163871,31.6883684 25.6375484,32.2256842 26.3219355,32.2256842 C27.2827097,32.2256842 27.9407742,31.518 27.9407742,30.2598947 Z" id="Combined-Shape"></path>
                        <path d="M30.3492903,32.7236842 L31.1389677,32.7236842 L31.1389677,28.0451053 C31.1389677,26.9573684 31.7443871,26.2627895 32.6788387,26.2627895 C33.4816774,26.2627895 33.8765161,26.7345789 33.8765161,27.6912632 L33.8765161,32.7236842 L34.6661935,32.7236842 L34.6661935,27.4684737 C34.6661935,26.1579474 33.9423226,25.6075263 32.8762581,25.6075263 C32.1523871,25.6075263 31.4943226,25.9482632 31.0863226,26.7345789 L31.06,26.7345789 L31.06,25.7647895 L30.3492903,25.7647895 L30.3492903,32.7236842 Z" id="by-Granvista"></path>
                        <polygon id="by-Granvista" points="37.4695484 32.7236842 38.3645161 32.7236842 40.2070968 25.7647895 39.3647742 25.7647895 37.9433548 31.8325263 37.9170323 31.8325263 36.364 25.7647895 35.5216774 25.7647895"></polygon>
                        <polygon id="by-Granvista" points="41.1152258 24.7032632 41.9049032 24.7032632 41.9049032 23.3665263 41.1152258 23.3665263"></polygon>
                        <polygon id="by-Granvista" points="41.1152258 32.7236842 41.9049032 32.7236842 41.9049032 25.7647895 41.1152258 25.7647895"></polygon>
                        <path d="M45.6953548,29.6963684 C46.3929032,29.9715789 46.6429677,30.3647368 46.6429677,30.9806842 C46.6429677,31.767 46.1033548,32.2256842 45.2610323,32.2256842 C44.3660645,32.2256842 43.9185806,31.7145789 43.9185806,30.6792632 L43.9185806,30.4957895 L43.1289032,30.4957895 L43.1289032,30.7185789 C43.1289032,32.2912105 43.8396129,32.8809474 45.2741935,32.8809474 C46.7482581,32.8809474 47.4326452,32.0028947 47.4326452,30.8103158 C47.4326452,30.0371053 47.0772903,29.3949474 46.1296774,29.0411053 L44.9846452,28.6086316 C44.1949677,28.3072105 44.0370323,27.9271579 44.0370323,27.4422632 C44.0370323,26.7476842 44.3792258,26.2627895 45.3136774,26.2627895 C46.0507097,26.2627895 46.4587097,26.6428421 46.4587097,27.5471053 L46.4587097,27.7436842 L47.2483871,27.7436842 L47.2483871,27.5471053 C47.2483871,26.2758947 46.6429677,25.6075263 45.3268387,25.6075263 C44.1291613,25.6075263 43.2473548,26.1841579 43.2473548,27.6126316 C43.2473548,28.3072105 43.5895484,28.8838421 44.5898065,29.2638947 L45.6953548,29.6963684 Z" id="by-Granvista"></path>
                        <path d="M48.8935484,31.5835263 C48.8935484,32.514 49.3015484,32.8023158 50.3676129,32.8023158 C50.644,32.8023158 50.8282581,32.7761053 50.9203871,32.7236842 L50.9203871,32.0684211 C50.7492903,32.1208421 50.5781935,32.1470526 50.4334194,32.1470526 C49.920129,32.1470526 49.6832258,31.9766842 49.6832258,31.4131579 L49.6832258,26.4200526 L50.9203871,26.4200526 L50.9203871,25.7647895 L49.6832258,25.7647895 L49.6832258,23.8383158 L48.8935484,23.8383158 L48.8935484,25.7647895 L47.9327742,25.7647895 L47.9327742,26.4200526 L48.8935484,26.4200526 L48.8935484,31.5835263 Z" id="by-Granvista"></path>
                        <path d="M52.4207742,27.8354211 L51.6310968,27.8354211 C51.6310968,26.4069474 52.3023226,25.6075263 53.7895484,25.6075263 C55.224129,25.6075263 55.7637419,26.3545263 55.7637419,27.4553684 L55.7637419,31.5704211 C55.7637419,31.9504737 55.8953548,32.1470526 56.1717419,32.1470526 L56.3954839,32.1470526 L56.3954839,32.7236842 C56.2507097,32.7761053 56.1190968,32.8023158 56.0269677,32.8023158 C55.4083871,32.8023158 55.0135484,32.6581579 55.0135484,31.9373684 L55.0135484,31.7014737 L54.9872258,31.7014737 C54.6713548,32.6188421 53.9738065,32.8809474 53.184129,32.8809474 C51.960129,32.8809474 51.4073548,32.1208421 51.4073548,30.9151579 C51.4073548,29.9846842 51.8153548,29.2638947 52.8156129,28.9886842 L54.3028387,28.5693158 C54.8687742,28.4251579 54.9740645,28.2678947 54.9740645,27.4684737 C54.9740645,26.5773158 54.4870968,26.2627895 53.7632258,26.2627895 C52.8156129,26.2627895 52.4207742,26.8263158 52.4207742,27.8354211 Z M54.9740645,30.2598947 L54.9740645,28.7921053 L54.9477419,28.7921053 C54.8556129,29.0411053 54.4212903,29.1590526 54.1054194,29.2507895 L53.4473548,29.4211579 C52.6576774,29.6308421 52.2496774,30.024 52.2496774,30.8627368 C52.2496774,31.6883684 52.6708387,32.2256842 53.3552258,32.2256842 C54.316,32.2256842 54.9740645,31.518 54.9740645,30.2598947 Z" id="Combined-Shape"></path>
                    </g>
                    <path d="M0,13.376 L1.938,13.376 L1.938,7.732 L5.508,7.732 L5.508,13.376 L7.446,13.376 L7.446,1.238 L5.508,1.238 L5.508,6.1 L1.938,6.1 L1.938,1.238 L0,1.238 L0,13.376 Z M12.975,12.152 C14.131,12.152 15.049,11.421 15.049,7.256 C15.049,3.176 14.131,2.462 12.975,2.462 C11.819,2.462 10.901,3.176 10.901,7.256 C10.901,11.421 11.819,12.152 12.975,12.152 Z M12.975,13.614 C10.187,13.614 8.963,11.642 8.963,7.307 C8.963,2.972 10.187,1 12.975,1 C15.763,1 16.987,2.972 16.987,7.307 C16.987,11.642 15.763,13.614 12.975,13.614 Z M19.983,13.376 L21.921,13.376 L21.921,2.87 L24.76,2.87 L24.76,1.238 L17.093,1.238 L17.093,2.87 L19.983,2.87 L19.983,13.376 Z M25.665,13.376 L32.363,13.376 L32.363,11.744 L27.603,11.744 L27.603,7.868 L31.955,7.868 L31.955,6.236 L27.603,6.236 L27.603,2.87 L32.227,2.87 L32.227,1.238 L25.665,1.238 L25.665,13.376 Z M33.421,13.376 L40.051,13.376 L40.051,11.744 L35.359,11.744 L35.359,1.238 L33.421,1.238 L33.421,13.376 Z M48.593,12.152 C49.749,12.152 50.667,11.421 50.667,7.256 C50.667,3.176 49.749,2.462 48.593,2.462 C47.437,2.462 46.519,3.176 46.519,7.256 C46.519,11.421 47.437,12.152 48.593,12.152 Z M48.593,13.614 C45.805,13.614 44.581,11.642 44.581,7.307 C44.581,2.972 45.805,1 48.593,1 C51.381,1 52.605,2.972 52.605,7.307 C52.605,11.642 51.381,13.614 48.593,13.614 Z M53.68,9.619 L53.68,9.908 C53.68,11.608 54.36,13.614 57.369,13.614 C59.817,13.614 61.381,12.543 61.381,9.959 C61.381,8.276 60.633,7.358 58.916,6.746 L57.607,6.27 C56.315,5.777 55.788,5.25 55.788,4.213 C55.788,2.921 56.587,2.462 57.42,2.462 C58.644,2.462 59.12,3.108 59.12,4.213 L59.12,4.468 L61.058,4.468 L61.058,4.196 C61.058,2.938 60.735,1 57.624,1 C55.363,1 53.85,2.224 53.85,4.434 C53.85,6.168 54.615,7.086 56.383,7.766 L57.709,8.225 C58.797,8.548 59.443,9.109 59.443,10.384 C59.443,11.268 58.814,12.152 57.607,12.152 C56.281,12.152 55.618,11.404 55.618,9.925 L55.618,9.619 L53.68,9.619 Z M61.589,13.376 L65.04,1.238 L67.522,1.238 L70.718,13.376 L68.695,13.376 L67.947,10.401 L64.394,10.401 L63.612,13.376 L61.589,13.376 Z M64.751,8.854 L67.624,8.854 L66.23,2.87 L66.196,2.87 L64.751,8.854 Z M71.368,13.376 L71.368,1.238 L73.306,1.238 L73.306,6.525 L73.34,6.525 L77.012,1.238 L79.137,1.238 L75.635,6.355 L79.511,13.376 L77.318,13.376 L74.377,7.919 L73.306,9.449 L73.306,13.376 L71.368,13.376 Z M78.835,13.376 L82.286,1.238 L84.768,1.238 L87.964,13.376 L85.941,13.376 L85.193,10.401 L81.64,10.401 L80.858,13.376 L78.835,13.376 Z M81.997,8.854 L84.87,8.854 L83.476,2.87 L83.442,2.87 L81.997,8.854 Z M92.494,13.376 L92.494,1.238 L96.421,1.238 C98.24,1.238 99.685,2.054 99.685,4.179 C99.685,5.641 99.09,6.559 97.9,6.933 L97.9,6.967 C99.226,7.205 100.076,8.004 100.076,10.061 C100.076,12.101 98.614,13.376 96.336,13.376 L92.494,13.376 Z M94.432,11.914 L96.353,11.914 C97.509,11.914 98.138,11.183 98.138,9.772 C98.138,8.463 97.373,7.715 96.234,7.715 L94.432,7.715 L94.432,11.914 Z M94.432,6.355 L95.962,6.355 C97.135,6.355 97.747,5.59 97.747,4.434 C97.747,2.989 96.88,2.7 95.792,2.7 L94.432,2.7 L94.432,6.355 Z M100.267,13.376 L103.718,1.238 L106.2,1.238 L109.396,13.376 L107.373,13.376 L106.625,10.401 L103.072,10.401 L102.29,13.376 L100.267,13.376 Z M103.429,8.854 L106.302,8.854 L104.908,2.87 L104.874,2.87 L103.429,8.854 Z M111.168,13.376 L111.168,8.633 L108.04,1.238 L110.199,1.238 L112.239,6.474 L114.33,1.238 L116.353,1.238 L113.106,8.633 L113.106,13.376 L111.168,13.376 Z M119.077,13.376 L119.077,2.87 L116.187,2.87 L116.187,1.238 L123.854,1.238 L123.854,2.87 L121.015,2.87 L121.015,13.376 L119.077,13.376 Z M127.972,12.152 C129.128,12.152 130.046,11.421 130.046,7.256 C130.046,3.176 129.128,2.462 127.972,2.462 C126.816,2.462 125.898,3.176 125.898,7.256 C125.898,11.421 126.816,12.152 127.972,12.152 Z M127.972,13.614 C125.184,13.614 123.96,11.642 123.96,7.307 C123.96,2.972 125.184,1 127.972,1 C130.76,1 131.984,2.972 131.984,7.307 C131.984,11.642 130.76,13.614 127.972,13.614 Z M134.946,13.376 L137.19,13.376 L138.737,4.23 L138.771,4.23 L140.335,13.376 L142.579,13.376 L144.993,1.238 L143.072,1.238 L141.491,10.724 L141.457,10.724 L139.825,1.238 L137.785,1.238 L136.187,10.673 L136.153,10.673 L134.555,1.238 L132.6,1.238 L134.946,13.376 Z M145.898,13.376 L152.596,13.376 L152.596,11.744 L147.836,11.744 L147.836,7.868 L152.188,7.868 L152.188,6.236 L147.836,6.236 L147.836,2.87 L152.46,2.87 L152.46,1.238 L145.898,1.238 L145.898,13.376 Z M155.813,6.644 L157.36,6.644 C158.601,6.644 159.298,5.896 159.298,4.672 C159.298,3.38 158.754,2.7 157.462,2.7 L155.813,2.7 L155.813,6.644 Z M153.875,13.376 L153.875,1.238 L158.159,1.238 C159.859,1.238 161.236,2.105 161.236,4.366 C161.236,5.93 160.556,7.137 159.213,7.341 L159.213,7.375 C160.437,7.494 161.049,8.157 161.117,9.857 C161.134,10.656 161.134,11.591 161.185,12.322 C161.236,12.917 161.508,13.189 161.763,13.376 L159.57,13.376 C159.383,13.155 159.298,12.781 159.247,12.305 C159.213,11.948 159.196,11.574 159.196,11.217 C159.196,10.86 159.179,10.452 159.162,10.01 C159.111,8.684 158.703,8.106 157.394,8.106 L155.813,8.106 L155.813,13.376 L153.875,13.376 Z" id="HOTEL-OSAKA-BAYTOWER" fill="#000000"></path>
                </g>
            </g>
        </g>
    </g>
</svg>