<?xml version="1.0" encoding="UTF-8" standalone="no"?>
<svg width="18px" height="18px" viewBox="0 0 18 18" version="1.1" xmlns="http://www.w3.org/2000/svg" xmlns:xlink="http://www.w3.org/1999/xlink">
    <!-- Generator: sketchtool 46.2 (44496) - http://www.bohemiancoding.com/sketch -->
    <title>17AB58D6-26B0-4397-B7C5-1C172C7DAEB3</title>
    <desc>Created with sketchtool.</desc>
    <defs></defs>
    <g id="Page-1" stroke="none" stroke-width="1" fill="none" fill-rule="evenodd">
        <g id="Hotel-Osaka-Baytower-Homepage-Desktop" transform="translate(-1000.000000, -17.000000)" fill="#7B7B85">
            <g id="Global-nav">
                <path d="M1017.09805,31.9368696 L1015.75119,33.2837391 C1015.14937,33.8855652 1014.34955,34.2173913 1013.49886,34.2173913 C1012.854,34.2173913 1012.23183,34.024087 1011.69966,33.6578261 C1009.78933,32.3438261 1007.22631,30.4913913 1005.86693,29.1327826 C1004.50833,27.7741739 1002.65669,25.2111304 1001.34192,23.3 C1000.47402,22.0368696 1000.63132,20.3331304 1001.71601,19.2484348 L1003.06286,17.9015652 C1003.13956,17.8248696 1003.24208,17.7826087 1003.35086,17.7826087 C1003.45964,17.7826087 1003.56138,17.8248696 1003.63886,17.9015652 L1005.8818,20.1445217 C1006.04067,20.3033913 1006.04067,20.5616522 1005.8818,20.7205217 L1004.91528,21.6870435 C1004.39877,22.2035652 1004.30407,23.0010435 1004.68676,23.6247826 C1005.23693,24.524 1006.34275,26.2136522 1007.56439,27.4353043 C1008.78525,28.6561739 1010.47567,29.762 1011.37488,30.3129565 C1011.62297,30.4655652 1011.90783,30.5453913 1012.19896,30.5453913 C1012.62,30.5453913 1013.01522,30.3818261 1013.3126,30.0836522 L1014.27912,29.117913 C1014.35581,29.0412174 1014.45833,28.9989565 1014.56712,28.9989565 C1014.6759,28.9989565 1014.77764,29.0412174 1014.85511,29.117913 L1017.09805,31.3608696 C1017.25692,31.5197391 1017.25692,31.778 1017.09805,31.9368696 M1017.65135,30.8075652 L1015.40841,28.5646087 C1015.17598,28.3321739 1014.87155,28.2163478 1014.56712,28.2163478 C1014.26268,28.2163478 1013.95825,28.3321739 1013.72582,28.5646087 L1012.7593,29.5303478 C1012.6067,29.6837391 1012.404,29.7627826 1012.19896,29.7627826 C1012.05575,29.7627826 1011.91253,29.7244348 1011.7834,29.6453913 C1010.94054,29.1296522 1009.28925,28.0535652 1008.11769,26.882 C1006.94614,25.7104348 1005.87006,24.0591304 1005.35432,23.2162609 C1005.1618,22.9024348 1005.20876,22.5001739 1005.46937,22.2403478 L1006.4351,21.2738261 C1006.89996,20.8089565 1006.89996,20.056087 1006.4351,19.5912174 L1004.19216,17.3482609 C1003.95973,17.1158261 1003.65529,17 1003.35086,17 C1003.04643,17 1002.742,17.1158261 1002.50957,17.3482609 L1001.16271,18.6951304 C999.811153,20.0466957 999.613937,22.1683478 1000.69706,23.7429565 C1002.0627,25.7292174 1003.92373,28.2961739 1005.31363,29.686087 C1006.70353,31.076 1009.27046,32.9370435 1011.25671,34.3026957 C1011.93679,34.7706957 1012.72017,35 1013.49886,35 C1014.52172,35 1015.53754,34.604 1016.30449,33.8370435 L1017.65135,32.4901739 C1018.11622,32.0253043 1018.11622,31.2724348 1017.65135,30.8075652" id="Phone-icon"></path>
            </g>
        </g>
    </g>
</svg>